<svg id="ed59md55bybn1" xmlns="http://www.w3.org/2000/svg" xmlns:xlink="http://www.w3.org/1999/xlink" viewBox="0 0 1200 768" shape-rendering="geometricPrecision" text-rendering="geometricPrecision"><style><![CDATA[#ed59md55bybn33_to {animation: ed59md55bybn33_to__to 3000ms linear infinite normal forwards}@keyframes ed59md55bybn33_to__to { 0% {transform: translate(1173.628652px,462.437681px)} 100% {transform: translate(365.316366px,98.535743px)} }#ed59md55bybn33 {animation: ed59md55bybn33_c_o 3000ms linear infinite normal forwards}@keyframes ed59md55bybn33_c_o { 0% {opacity: 0} 3.333333% {opacity: 1} 96.666667% {opacity: 1} 100% {opacity: 0} }#ed59md55bybn41_to {animation: ed59md55bybn41_to__to 3000ms linear infinite normal forwards}@keyframes ed59md55bybn41_to__to { 0% {transform: translate(602.916006px,386.393614px)} 100% {transform: translate(119.218079px,155.168585px)} }#ed59md55bybn58_to {animation: ed59md55bybn58_to__to 3000ms linear infinite normal forwards}@keyframes ed59md55bybn58_to__to { 0% {transform: translate(590.771406px,341.233611px)} 33.333333% {transform: translate(588px,343px)} 66.666667% {transform: translate(595px,341px)} 100% {transform: translate(590.770000px,341.230000px)} }#ed59md55bybn62_to {animation: ed59md55bybn62_to__to 3000ms linear infinite normal forwards}@keyframes ed59md55bybn62_to__to { 0% {transform: translate(285.843579px,723.978221px)} 3.333333% {transform: translate(291.604745px,729.424961px)} 6.666667% {transform: translate(293.719653px,735.945948px)} 13.333333% {transform: translate(286.460377px,742.959015px)} 20% {transform: translate(281.442392px,741.475269px)} 26.666667% {transform: translate(277.084198px,738.124485px)} 33.333333% {transform: translate(274.368535px,731.647988px)} 40% {transform: translate(274.111244px,724.324025px)} 46.666667% {transform: translate(276.885504px,722.317891px)} 50% {transform: translate(285.843579px,723.978221px)} 56.666667% {transform: translate(293.719653px,735.945948px)} 63.333333% {transform: translate(286.460377px,742.959015px)} 70% {transform: translate(284.293551px,742.453236px)} 76.666667% {transform: translate(277.084198px,738.124485px)} 83.333333% {transform: translate(274.368535px,731.647988px)} 90% {transform: translate(274.111244px,724.324025px)} 96.666667% {transform: translate(276.885504px,722.317891px)} 100% {transform: translate(285.837056px,724.351923px)} }#ed59md55bybn62_tr {animation: ed59md55bybn62_tr__tr 3000ms linear infinite normal forwards}@keyframes ed59md55bybn62_tr__tr { 0% {transform: rotate(0deg)} 13.333333% {transform: rotate(147deg)} 33.333333% {transform: rotate(224deg)} 46.666667% {transform: rotate(323deg)} 50% {transform: rotate(0deg)} 63.333333% {transform: rotate(147deg)} 83.333333% {transform: rotate(224deg)} 96.666667% {transform: rotate(323deg)} 100% {transform: rotate(360deg)} }#ed59md55bybn68_to {animation: ed59md55bybn68_to__to 3000ms linear infinite normal forwards}@keyframes ed59md55bybn68_to__to { 0% {transform: translate(91.480855px,637.450472px)} 6.666667% {transform: translate(100.698729px,649.979729px)} 10% {transform: translate(96.236716px,654.051737px)} 13.333333% {transform: translate(92.805860px,656.076999px)} 20% {transform: translate(86.937623px,652.714417px)} 26.666667% {transform: translate(83.073341px,649.839986px)} 33.333333% {transform: translate(80.302664px,645.786634px)} 40% {transform: translate(80.097347px,637.289667px)} 46.666667% {transform: translate(83.790953px,633.392367px)} 50% {transform: translate(91.551556px,633.399996px)} 56.666667% {transform: translate(97.434362px,650.041370px)} 63.333333% {transform: translate(92.072004px,654.426982px)} 70% {transform: translate(84.822991px,653.447000px)} 76.666667% {transform: translate(81.825832px,650.558361px)} 83.333333% {transform: translate(79.945674px,643.554979px)} 90% {transform: translate(81.837383px,634.207594px)} 96.666667% {transform: translate(84.564978px,631.921613px)} 100% {transform: translate(92.678241px,633.845128px)} }#ed59md55bybn68_tr {animation: ed59md55bybn68_tr__tr 3000ms linear infinite normal forwards}@keyframes ed59md55bybn68_tr__tr { 0% {transform: rotate(0deg)} 13.333333% {transform: rotate(147deg)} 33.333333% {transform: rotate(224deg)} 46.666667% {transform: rotate(323deg)} 50% {transform: rotate(0deg)} 63.333333% {transform: rotate(147deg)} 83.333333% {transform: rotate(224deg)} 96.666667% {transform: rotate(323deg)} 100% {transform: rotate(360deg)} }]]></style><defs><filter id="ed59md55bybn6-filter" x="-400%" width="600%" y="-400%" height="600%"><feGaussianBlur id="ed59md55bybn6-filter-drop-shadow-0-blur" in="SourceAlpha" stdDeviation="2,0"/><feOffset id="ed59md55bybn6-filter-drop-shadow-0-offset" dx="2" dy="0" result="tmp"/><feFlood id="ed59md55bybn6-filter-drop-shadow-0-flood" flood-color="rgb(255,0,0)"/><feComposite id="ed59md55bybn6-filter-drop-shadow-0-composite" operator="in" in2="tmp"/><feMerge id="ed59md55bybn6-filter-drop-shadow-0-merge"><feMergeNode id="ed59md55bybn6-filter-drop-shadow-0-merge-node-1"/><feMergeNode id="ed59md55bybn6-filter-drop-shadow-0-merge-node-2" in="SourceGraphic"/></feMerge></filter></defs><g id="ed59md55bybn2" transform="matrix(1 0 0 1 -139.44967448499960 14.30038864000068)"><path id="ed59md55bybn3" d="M361.730000,196.270000C296.400000,241.170000,220.350000,390.400000,306.860000,508.570000C393.370000,626.740000,684.500000,603.350000,790.090000,580.190000C914.590000,552.890000,1157.260000,582.430000,1210.020000,491.690000C1236.570000,446.030000,1239.580000,334.840000,1178.360000,282.780000C1090.240000,207.850000,946.240000,101.310000,716.240000,103.420000C623.580000,104.270000,438.090000,143.780000,361.730000,196.270000Z" opacity="0.26" fill="rgb(255,130,0)" stroke="none" stroke-width="1"/><path id="ed59md55bybn4" d="M622.520000,273.170000C586.700000,284.500000,531.610000,341.640000,554.520000,407.170000C577.430000,472.700000,712.610000,502.310000,763.670000,506.390000C823.870000,511.210000,929.790000,558.130000,966.240000,524.290000C984.580000,507.290000,1001.310000,457.290000,980.750000,425.220000C951.140000,379.060000,900.580000,310.870000,796,280.060000C753.920000,267.640000,664.380000,259.930000,622.520000,273.170000Z" opacity="0.26" fill="rgb(255,130,0)" stroke="none" stroke-width="1"/><polygon id="ed59md55bybn5" points="1030.350000,597.220000 248.890000,240.520000 441.890000,138.870000 1207.450000,493.780000 1030.350000,597.220000" fill="rgb(86,86,86)" stroke="none" stroke-width="1"/></g><g id="ed59md55bybn6" display="none" transform="matrix(1 0 0 1 -1454.62403322999990 21.60361137999791)" filter="url(#ed59md55bybn6-filter)"><polygon id="ed59md55bybn7" points="1414.640000,61.950000 1351.020000,32.910000 1366.730000,24.630000 1429.060000,53.530000 1414.640000,61.950000" transform="matrix(1 0 0 1 724.99000000000160 348.00000000000011)" fill="rgb(255,255,255)" stroke="none" stroke-width="1"/><polygon id="ed59md55bybn8" points="1414.640000,61.950000 1351.020000,32.910000 1366.730000,24.630000 1429.060000,53.530000 1414.640000,61.950000" fill="rgb(255,255,255)" stroke="none" stroke-width="1"/><polygon id="ed59md55bybn9" points="1536.640000,120.950000 1473.020000,91.910000 1488.730000,83.630000 1551.060000,112.530000 1536.640000,120.950000" transform="matrix(1 0 0 1 724.99000000000160 348.00000000000011)" fill="rgb(255,255,255)" stroke="none" stroke-width="1"/><polygon id="ed59md55bybn10" points="1536.640000,120.950000 1473.020000,91.910000 1488.730000,83.630000 1551.060000,112.530000 1536.640000,120.950000" fill="rgb(255,255,255)" stroke="none" stroke-width="1"/><polygon id="ed59md55bybn11" points="1536.640000,120.950000 1473.020000,91.910000 1488.730000,83.630000 1551.060000,112.530000 1536.640000,120.950000" transform="matrix(1 0 0 1 844.19945100000132 405.71251199999983)" fill="rgb(255,255,255)" stroke="none" stroke-width="1"/><polygon id="ed59md55bybn12" points="1536.640000,120.950000 1473.020000,91.910000 1488.730000,83.630000 1551.060000,112.530000 1536.640000,120.950000" transform="matrix(1 0 0 1 119.20945099999994 57.71251200000000)" fill="rgb(255,255,255)" stroke="none" stroke-width="1"/><polygon id="ed59md55bybn13" points="1658.640000,179.950000 1595.020000,150.910000 1610.730000,142.630000 1673.060000,171.530000 1658.640000,179.950000" transform="matrix(1 0 0 1 2079.43417200000204 1284.36319099999946)" fill="rgb(255,255,255)" stroke="none" stroke-width="1"/><polygon id="ed59md55bybn14" points="1658.640000,179.950000 1595.020000,150.910000 1610.730000,142.630000 1673.060000,171.530000 1658.640000,179.950000" transform="matrix(1 0 0 1 1354.44417200000044 936.36319099999992)" fill="rgb(255,255,255)" stroke="none" stroke-width="1"/><polygon id="ed59md55bybn15" points="1780.640000,238.950000 1717.020000,209.910000 1732.730000,201.630000 1795.060000,230.530000 1780.640000,238.950000" transform="matrix(1 0 0 1 724.99000000000251 347.99999999999977)" fill="rgb(255,255,255)" stroke="none" stroke-width="1"/><polygon id="ed59md55bybn16" points="1780.640000,238.950000 1717.020000,209.910000 1732.730000,201.630000 1795.060000,230.530000 1780.640000,238.950000" fill="rgb(255,255,255)" stroke="none" stroke-width="1"/><polygon id="ed59md55bybn17" points="1902.640000,297.950000 1839.020000,268.910000 1854.730000,260.630000 1917.060000,289.530000 1902.640000,297.950000" transform="matrix(1 0 0 1 724.99000000000251 347.99999999999977)" fill="rgb(255,255,255)" stroke="none" stroke-width="1"/><polygon id="ed59md55bybn18" points="1902.640000,297.950000 1839.020000,268.910000 1854.730000,260.630000 1917.060000,289.530000 1902.640000,297.950000" fill="rgb(255,255,255)" stroke="none" stroke-width="1"/><polygon id="ed59md55bybn19" points="2024.640000,356.950000 1961.020000,327.910000 1976.730000,319.630000 2039.060000,348.530000 2024.640000,356.950000" transform="matrix(1 0 0 1 724.99000000000160 347.99999999999977)" fill="rgb(255,255,255)" stroke="none" stroke-width="1"/><polygon id="ed59md55bybn20" points="2024.640000,356.950000 1961.020000,327.910000 1976.730000,319.630000 2039.060000,348.530000 2024.640000,356.950000" fill="rgb(255,255,255)" stroke="none" stroke-width="1"/><polygon id="ed59md55bybn21" points="2139.640000,409.950000 2076.010000,380.910000 2091.730000,372.630000 2154.060000,401.530000 2139.640000,409.950000" transform="matrix(1 0 0 1 724.99000000000160 347.99999999999955)" fill="rgb(255,255,255)" stroke="none" stroke-width="1"/><polygon id="ed59md55bybn22" points="2139.640000,409.950000 2076.010000,380.910000 2091.730000,372.630000 2154.060000,401.530000 2139.640000,409.950000" fill="rgb(255,255,255)" stroke="none" stroke-width="1"/></g><g id="ed59md55bybn23" display="none"><rect id="ed59md55bybn24" width="5.290000" height="89.130000" rx="0.920000" ry="0.920000" transform="matrix(1 0 0 1 142.99000000000001 127)" fill="rgb(255,130,0)" stroke="none" stroke-width="1"/><polygon id="ed59md55bybn25" points="154.750000,84.100000 136.250000,92.330000 127,117.240000 136.250000,133.900000 154.750000,125.670000 164,100.760000 154.750000,84.100000" fill="rgb(255,130,0)" stroke="none" stroke-width="1"/><polygon id="ed59md55bybn26" points="138.960000,217.220000 145.220000,218 151.490000,217.220000 155.270000,218 158.130000,214.870000 156.960000,212.910000 154.220000,212.520000 152.260000,209.390000 149.130000,209 146.780000,211.350000 143.260000,209.780000 137.780000,212.520000 137,214.870000 138.960000,217.220000" fill="rgb(255,130,0)" stroke="none" stroke-width="1"/><polygon id="ed59md55bybn27" points="149.130000,209 150.700000,212.910000 146.780000,211.350000 149.130000,209" fill="rgb(255,164,90)" stroke="none" stroke-width="1"/><polygon id="ed59md55bybn28" points="138.960000,217.220000 143.260000,214.870000 145.220000,218 138.960000,217.220000" fill="rgb(255,164,90)" stroke="none" stroke-width="1"/><polygon id="ed59md55bybn29" points="137.780000,212.520000 142.090000,212.130000 143.260000,209.780000 137.780000,212.520000" fill="rgb(255,164,90)" stroke="none" stroke-width="1"/><polygon id="ed59md55bybn30" points="143.260000,214.870000 142.090000,212.130000 143.260000,213.500000 143.260000,214.870000" fill="rgb(255,164,90)" stroke="none" stroke-width="1"/><polyline id="ed59md55bybn31" points="150.700000,212.910000 147.960000,214.480000 151.490000,217.220000 150.830000,212.910000" fill="rgb(255,164,90)" stroke="none" stroke-width="1"/><polygon id="ed59md55bybn32" points="141,129.640000 156.330000,88.360000 164,102.170000 156.330000,122.810000 141,129.640000" fill="rgb(255,164,90)" stroke="none" stroke-width="1"/></g><g id="ed59md55bybn33_to" transform="translate(1173.628652,462.437681)"><g id="ed59md55bybn33" transform="translate(-145.500000,-151.049995)" opacity="0"><g id="ed59md55bybn34" transform="matrix(1 0 0 1 -22.19832759999974 -153.15717059499985)"><polygon id="ed59md55bybn35" points="73.930000,343.780000 111.850000,348.520000 149.860000,343.780000 172.720000,348.520000 190.070000,329.560000 182.960000,317.700000 166.370000,315.330000 154.520000,296.370000 135.560000,294 121.330000,308.220000 100,298.740000 66.810000,315.330000 62.070000,329.560000 73.930000,343.780000" fill="rgb(255,130,0)" stroke="none" stroke-width="1"/><polygon id="ed59md55bybn36" points="135.560000,294 145.040000,317.700000 121.330000,308.220000 135.560000,294" fill="rgb(255,164,90)" stroke="none" stroke-width="1"/><polygon id="ed59md55bybn37" points="73.930000,343.780000 100,329.560000 111.850000,348.520000 73.930000,343.780000" fill="rgb(255,164,90)" stroke="none" stroke-width="1"/><polygon id="ed59md55bybn38" points="66.810000,315.330000 92.890000,312.960000 100,298.740000 66.810000,315.330000" fill="rgb(255,164,90)" stroke="none" stroke-width="1"/><polygon id="ed59md55bybn39" points="100,329.560000 92.890000,312.960000 100,321.260000 100,329.560000" fill="rgb(255,164,90)" stroke="none" stroke-width="1"/><polyline id="ed59md55bybn40" points="145.040000,317.700000 128.440000,327.190000 149.860000,343.780000 145.860000,317.700000" fill="rgb(255,164,90)" stroke="none" stroke-width="1"/></g></g></g><g id="ed59md55bybn41_to" transform="translate(602.916006,386.393614)"><g id="ed59md55bybn41" transform="translate(-2057.540039,-364.790003)"><polygon id="ed59md55bybn42" points="1414.640000,61.950000 1351.020000,32.910000 1366.730000,24.630000 1429.060000,53.530000 1414.640000,61.950000" transform="matrix(1 0 0 1 724.99000000000160 348.00000000000011)" fill="rgb(255,255,255)" stroke="none" stroke-width="1"/><polygon id="ed59md55bybn43" points="1414.640000,61.950000 1351.020000,32.910000 1366.730000,24.630000 1429.060000,53.530000 1414.640000,61.950000" fill="rgb(255,255,255)" stroke="none" stroke-width="1"/><polygon id="ed59md55bybn44" points="1536.640000,120.950000 1473.020000,91.910000 1488.730000,83.630000 1551.060000,112.530000 1536.640000,120.950000" transform="matrix(1 0 0 1 724.99000000000160 348.00000000000011)" fill="rgb(255,255,255)" stroke="none" stroke-width="1"/><polygon id="ed59md55bybn45" points="1536.640000,120.950000 1473.020000,91.910000 1488.730000,83.630000 1551.060000,112.530000 1536.640000,120.950000" fill="rgb(255,255,255)" stroke="none" stroke-width="1"/><polygon id="ed59md55bybn46" points="1536.640000,120.950000 1473.020000,91.910000 1488.730000,83.630000 1551.060000,112.530000 1536.640000,120.950000" transform="matrix(1 0 0 1 844.19945100000132 405.71251199999983)" fill="rgb(255,255,255)" stroke="none" stroke-width="1"/><polygon id="ed59md55bybn47" points="1536.640000,120.950000 1473.020000,91.910000 1488.730000,83.630000 1551.060000,112.530000 1536.640000,120.950000" transform="matrix(1 0 0 1 119.20945099999994 57.71251200000000)" fill="rgb(255,255,255)" stroke="none" stroke-width="1"/><polygon id="ed59md55bybn48" points="1658.640000,179.950000 1595.020000,150.910000 1610.730000,142.630000 1673.060000,171.530000 1658.640000,179.950000" transform="matrix(1 0 0 1 2079.43417200000204 1284.36319099999946)" fill="rgb(255,255,255)" stroke="none" stroke-width="1"/><polygon id="ed59md55bybn49" points="1658.640000,179.950000 1595.020000,150.910000 1610.730000,142.630000 1673.060000,171.530000 1658.640000,179.950000" transform="matrix(1 0 0 1 1354.44417200000044 936.36319099999992)" fill="rgb(255,255,255)" stroke="none" stroke-width="1"/><polygon id="ed59md55bybn50" points="1780.640000,238.950000 1717.020000,209.910000 1732.730000,201.630000 1795.060000,230.530000 1780.640000,238.950000" transform="matrix(1 0 0 1 724.99000000000251 347.99999999999977)" fill="rgb(255,255,255)" stroke="none" stroke-width="1"/><polygon id="ed59md55bybn51" points="1780.640000,238.950000 1717.020000,209.910000 1732.730000,201.630000 1795.060000,230.530000 1780.640000,238.950000" fill="rgb(255,255,255)" stroke="none" stroke-width="1"/><polygon id="ed59md55bybn52" points="1902.640000,297.950000 1839.020000,268.910000 1854.730000,260.630000 1917.060000,289.530000 1902.640000,297.950000" transform="matrix(1 0 0 1 724.99000000000251 347.99999999999977)" fill="rgb(255,255,255)" stroke="none" stroke-width="1"/><polygon id="ed59md55bybn53" points="1902.640000,297.950000 1839.020000,268.910000 1854.730000,260.630000 1917.060000,289.530000 1902.640000,297.950000" fill="rgb(255,255,255)" stroke="none" stroke-width="1"/><polygon id="ed59md55bybn54" points="2024.640000,356.950000 1961.020000,327.910000 1976.730000,319.630000 2039.060000,348.530000 2024.640000,356.950000" transform="matrix(1 0 0 1 724.99000000000160 347.99999999999977)" fill="rgb(255,255,255)" stroke="none" stroke-width="1"/><polygon id="ed59md55bybn55" points="2024.640000,356.950000 1961.020000,327.910000 1976.730000,319.630000 2039.060000,348.530000 2024.640000,356.950000" fill="rgb(255,255,255)" stroke="none" stroke-width="1"/><polygon id="ed59md55bybn56" points="2139.640000,409.950000 2076.010000,380.910000 2091.730000,372.630000 2154.060000,401.530000 2139.640000,409.950000" transform="matrix(1 0 0 1 724.99000000000160 347.99999999999955)" fill="rgb(255,255,255)" stroke="none" stroke-width="1"/><polygon id="ed59md55bybn57" points="2139.640000,409.950000 2076.010000,380.910000 2091.730000,372.630000 2154.060000,401.530000 2139.640000,409.950000" fill="rgb(255,255,255)" stroke="none" stroke-width="1"/></g></g><g id="ed59md55bybn58_to" transform="translate(590.771406,341.233611)"><g id="ed59md55bybn58" transform="rotate(-1) translate(-208.883232,-611.551208)"><ellipse id="ed59md55bybn59" rx="12.780000" ry="17.740000" transform="matrix(0.87789900000000 -0.47884500000000 0.47884500000000 0.87789900000000 287.46618677999999 730.25217259999999)" fill="rgb(91,91,91)" stroke="none" stroke-width="1"/><ellipse id="ed59md55bybn60" rx="12.780000" ry="17.740000" transform="matrix(0.87789900000000 -0.47884500000000 0.47884500000000 0.87789900000000 283.21688262999993 732.52887356999986)" fill="rgb(91,91,91)" stroke="none" stroke-width="1"/><polygon id="ed59md55bybn61" points="279.440000,714.310000 274.140000,717.280000 290.040000,748.840000 295.930000,745.790000 279.440000,714.310000" fill="rgb(91,91,91)" stroke="none" stroke-width="1"/><g id="ed59md55bybn62_to" transform="translate(285.843579,723.978221)"><g id="ed59md55bybn62_tr" transform="rotate(0)"><path id="ed59md55bybn62" d="M285.894062,725.842405C286.821296,725.837644,287.732335,726.048755,288.528193,726.452800C289.347593,726.852148,290.052436,727.400909,290.591906,728.059519C290.727982,728.222089,290.851895,728.391758,290.962910,728.567526C291.084037,728.738311,291.187977,728.917471,291.273626,729.103099C291.357102,729.292124,291.445216,729.473274,291.519417,729.662300C291.593617,729.851325,291.630718,730.056103,291.677093,730.237253C291.732518,730.426925,291.765148,730.620881,291.774482,730.816144C291.774482,731.013046,291.797670,731.209948,291.802307,731.398974C291.784388,731.784928,291.723834,732.168601,291.621443,732.544942C291.412753,732.190519,291.292176,731.836096,291.129862,731.497424C291.041748,731.332027,290.958272,731.166629,290.884072,731.001232L290.772770,730.753136L290.633644,730.516854C290.545530,730.359332,290.457416,730.201811,290.378578,730.044289L290.086412,729.595353C289.996130,729.443942,289.893870,729.297901,289.780333,729.158231C289.680814,729.013083,289.572458,728.872436,289.455705,728.736861C288.997047,728.179179,288.470058,727.664358,287.883573,727.201027C287.262573,726.705344,286.597426,726.251120,285.894062,725.842405Z" transform="translate(-287.029999,-727.359833)" fill="rgb(56,56,56)" fill-opacity="0.77" stroke="none" stroke-width="1"/></g></g><ellipse id="ed59md55bybn63" rx="5.030000" ry="6.980000" transform="matrix(0.88000000000000 -0.48000000000000 0.48000000000000 0.88000000000000 282.69200000000001 733.86199999999997)" fill="rgb(170,170,170)" stroke="none" stroke-width="1"/><ellipse id="ed59md55bybn64" rx="12.730000" ry="17.670000" transform="matrix(0.87789900000000 -0.47884500000000 0.47884500000000 0.87789900000000 94.05358154999999 643.48507627000004)" fill="rgb(91,91,91)" stroke="none" stroke-width="1"/><ellipse id="ed59md55bybn65" rx="12.730000" ry="17.670000" transform="matrix(0.87789900000000 -0.47884500000000 0.47884500000000 0.87789900000000 89.80347948999997 645.73943081000004)" fill="rgb(91,91,91)" stroke="none" stroke-width="1"/><polygon id="ed59md55bybn66" points="86.050000,627.590000 80.770000,630.550000 96.610000,661.990000 102.480000,658.950000 86.050000,627.590000" fill="rgb(91,91,91)" stroke="none" stroke-width="1"/><ellipse id="ed59md55bybn67" rx="5.010000" ry="6.950000" transform="matrix(0.87789900000000 -0.47884500000000 0.47884500000000 0.87789900000000 87.85903783999998 645.85852644000011)" fill="rgb(170,170,170)" stroke="none" stroke-width="1"/><g id="ed59md55bybn68_to" transform="translate(91.480855,637.450472)"><g id="ed59md55bybn68_tr" transform="rotate(0)"><path id="ed59md55bybn68" d="M289.895471,729.263539C290.445468,729.258845,290.985859,729.466930,291.457930,729.865185C291.943964,730.258808,292.362048,730.799702,292.682039,731.448872C292.762754,731.609111,292.836254,731.776349,292.902104,731.949597C292.973951,732.117935,293.035605,732.294526,293.086408,732.477493C293.135922,732.663809,293.188188,732.842362,293.232201,733.028678C293.276214,733.214994,293.298220,733.416837,293.325728,733.595390C293.358604,733.782343,293.377958,733.973519,293.383495,734.165983C293.383495,734.360063,293.397249,734.554142,293.400000,734.740458C293.389371,735.120880,293.353452,735.499054,293.292718,735.870000C293.168932,735.520657,293.097411,735.171314,293.001133,734.837498C292.948867,734.674471,292.899353,734.511444,292.855340,734.348418L292.789321,734.103878L292.706796,733.870983C292.654531,733.715719,292.602266,733.560456,292.555502,733.405192L292.382201,732.962691C292.328649,732.813451,292.267993,732.669502,292.200648,732.531835C292.141617,732.388767,292.077344,732.250136,292.008091,732.116505C291.736034,731.566817,291.423446,731.059375,291.075567,730.602686C290.707215,730.114108,290.312677,729.666395,289.895471,729.263539Z" transform="translate(-287.029999,-727.359833)" fill="rgb(56,56,56)" fill-opacity="0.57" stroke="none" stroke-width="1"/></g></g><path id="ed59md55bybn69" d="M39.270000,525.170000L115.210000,473.910000C122.530000,468.800000,125.530000,468.620000,133.040000,472.910000L295.600000,553.810000L295.670000,553.810000C299.798088,556.039711,302.415744,560.309619,302.530000,565L304.410000,649.950000L224,711.220000" fill="rgb(244,244,244)" stroke="none" stroke-width="1"/><path id="ed59md55bybn70" d="M223.810000,711.580000L104.340000,654.650000C104.340000,654.650000,103.340000,635.280000,91.560000,628.980000C84.720000,625.310000,77.790000,626.720000,73.560000,635.830000C62.250000,631.060000,39.430000,618.580000,39.430000,618.580000C39.430000,618.580000,35,584.510000,36.110000,562.370000C36.810000,548.850000,37.050000,536.820000,37.860000,528.680000C38.047262,526.816865,39.159773,525.173134,40.819851,524.306831C42.479929,523.440529,44.464564,523.468030,46.100000,524.380000L67.590000,534.750000L204.400000,604.620000C209.211863,607.077468,213.304870,610.739814,216.280000,615.250000" fill="rgb(230,230,230)" stroke="none" stroke-width="1"/><path id="ed59md55bybn71" d="M308.380000,731.270000L323.760000,737.370000C356.690000,718.590000,359.320000,715.700000,365.760000,712.850000C373.560000,709.380000,374.050000,706.770000,378.550000,698.060000C383.050000,689.350000,379.550000,674.970000,379.550000,674.970000L316.470000,590.610000C315.019735,588.678517,313.149245,587.102108,311,586L300.510000,581.370000L223.910000,624.150000" fill="rgb(244,244,244)" stroke="none" stroke-width="1"/><path id="ed59md55bybn72" d="M226,624L237.460000,629.850000C241.393344,631.858742,244.738814,634.852782,247.170000,638.540000L324.770000,737.290000L303.380000,738.560000C303.380000,738.560000,293.760000,721.100000,282.430000,715.760000C271.100000,710.420000,267.890000,726.390000,267.890000,726.390000L228.890000,707.690000L223.950000,624.120000Z" fill="rgb(230,230,230)" stroke="none" stroke-width="1"/><polygon id="ed59md55bybn73" points="344.660000,718.100000 366.850000,703.760000 367.420000,713.270000 346.480000,727.010000 344.660000,718.100000" fill="rgb(99,109,111)" stroke="none" stroke-width="1"/><path id="ed59md55bybn74" d="M283.890000,683.890000C293.630000,703.630000,313.220000,715.340000,304.200000,711.480000C308.310000,713.240000,307.100000,716.320000,315.750000,715.310000C324.400000,714.300000,327.280000,712.120000,327.280000,712.120000L374.700000,681.860000C373.040000,683.120000,385.520000,680.620000,367.820000,656.630000C360.610000,649,354.060000,641,354.060000,641C354.060000,641,355.010000,651.730000,330.550000,665.820000C286,691.520000,283.890000,683.890000,283.890000,683.890000Z" fill="rgb(244,244,244)" stroke="none" stroke-width="1"/><path id="ed59md55bybn75" d="M288.700000,720.410000L293.340000,714.130000C296.686865,716.466824,300.777402,717.488568,304.830000,717C309.109177,716.380684,313.307581,715.294196,317.350000,713.760000L326.230000,728.260000L344.660000,718.150000L346.480000,727.060000L323.940000,740.420000C323.940000,740.420000,316.070000,742.890000,311.080000,743.180000C306.090000,743.470000,299,741.840000,299,741.840000C299,741.840000,297,725.930000,288.700000,720.410000Z" fill="rgb(99,109,111)" stroke="none" stroke-width="1"/><path id="ed59md55bybn76" d="M373.420000,679.330000L375.530000,681.210000L377.420000,696.130000L366.850000,703.760000L367.420000,713.270000C367.420000,713.270000,376.130000,708.270000,378.830000,703.060000C382.013012,697.192433,383.029054,690.391675,381.700000,683.850000C380.020000,674.770000,379.600000,674.850000,376.880000,670.110000C376.880000,670.110000,378.230000,676,373.420000,679.330000Z" fill="rgb(99,109,111)" stroke="none" stroke-width="1"/><path id="ed59md55bybn77" d="M253.910000,640.330000L285,680.240000C285.855418,681.331712,287.310833,681.757883,288.620000,681.300000C296.120000,678.650000,319.140000,670.150000,328.430000,663.970000C337.310000,658.060000,346.250000,648.380000,349.930000,644.200000C350.960407,643.032279,351.010868,641.295579,350.050000,640.070000L320.200000,599.640000C319.218887,598.370388,317.450992,598.020226,316.060000,598.820000L254.060000,634.590000C253.222725,635.064561,252.640683,635.887769,252.472437,636.835361C252.304191,637.782954,252.567268,638.756213,253.190000,639.490000Z" fill="rgb(73,73,73)" stroke="none" stroke-width="1"/><path id="ed59md55bybn78" d="M231.740000,633.540000L239.740000,637.620000C240.368756,637.938483,240.916114,638.396895,241.340000,638.960000L274.450000,683.190000C274.698086,683.523591,274.688554,683.982898,274.426844,684.305910C274.165133,684.628922,273.717790,684.733505,273.340000,684.560000L236,667.270000C235.007204,666.801287,234.302867,665.880805,234.110000,664.800000L229,635.560000C228.874504,634.849188,229.162617,634.128652,229.743604,633.700334C230.324591,633.272015,231.098103,633.209893,231.740000,633.540000Z" fill="rgb(73,73,73)" stroke="none" stroke-width="1"/><path id="ed59md55bybn79" d="M37.330000,601.350000L70.830000,616.610000L71.480000,621.300000L76.090000,631.830000L73.630000,636.830000L39.500000,619.570000C39.500000,619.570000,37.640000,604.610000,37.330000,601.350000Z" fill="rgb(99,109,111)" stroke="none" stroke-width="1"/><path id="ed59md55bybn80" d="M292.390000,698.160000C292.390000,698.160000,303.580000,701.040000,310.490000,699.360000L317.350000,713.710000C317.350000,713.710000,306.350000,718.270000,299.350000,716.710000C291.340000,714.250000,293.910000,717.360000,292.390000,698.160000Z" fill="rgb(255,130,0)" stroke="none" stroke-width="1"/><path id="ed59md55bybn81" d="M364.610000,665.830000L373.420000,679.330000C376.301599,677.216205,377.659517,673.597707,376.880000,670.110000C375.770000,665.240000,367.010000,655.670000,367.010000,655.670000C367.010000,655.670000,368.440000,662.890000,364.610000,665.830000Z" fill="rgb(255,130,0)" stroke="none" stroke-width="1"/><path id="ed59md55bybn82" d="M327.340000,713.120000C327.340000,713.120000,331.800000,720.870000,333.480000,724.230000C347.600000,716.930000,364.090000,707.940000,372.160000,700.310000C371.880000,695.590000,370.840000,686.500000,370.840000,686.500000Z" fill="rgb(91,91,91)" stroke="none" stroke-width="1"/><ellipse id="ed59md55bybn83" rx="3" ry="5" transform="matrix(0.44791500000000 -0.89407600000000 0.89407600000000 0.44791500000000 234.94490800999995 675.50790544999995)" fill="rgb(191,191,191)" stroke="none" stroke-width="1"/><path id="ed59md55bybn84" d="M35.930000,571.390000C38.483510,572.206812,40.984821,573.178616,43.420000,574.300000C43.190000,580,45.230000,605,45.230000,605L37.330000,601.400000C37.330000,601.400000,35.550000,573.710000,35.930000,571.390000Z" fill="rgb(255,130,0)" stroke="none" stroke-width="1"/><line id="ed59md55bybn85" x1="317.350000" y1="713.710000" x2="373.420000" y2="679.330000" opacity="0.15" fill="rgb(99,109,111)" stroke="none" stroke-width="1"/><line id="ed59md55bybn86" x1="224.980000" y1="623.840000" x2="301.500000" y2="581.360000" opacity="0.15" fill="rgb(99,109,111)" stroke="none" stroke-width="1"/><polyline id="ed59md55bybn87" points="109.530000,635.920000 112.020000,637.060000 222.480000,689.130000 223.100000,699.560000 110.130000,645.990000" fill="rgb(99,109,111)" stroke="none" stroke-width="1"/><path id="ed59md55bybn88" d="M55.380000,535.890000C55.380000,535.890000,52.650000,572.400000,54.230000,574.660000C55.640000,576.660000,163.130000,627.870000,186.050000,638.760000C186.940878,639.204798,188.001946,639.137204,188.829181,638.582957C189.656416,638.028709,190.122515,637.073101,190.050000,636.080000L188.110000,605.080000C187.988976,603.232309,186.896366,601.587684,185.240000,600.760000Z" opacity="0.08" fill="none" stroke="rgb(99,109,111)" stroke-width="1" stroke-miterlimit="10"/><path id="ed59md55bybn89" d="M95.070000,607.780000L84.730000,602.510000C83.169616,601.811404,82.208374,600.215982,82.320000,598.510000L84.210000,578.950000C84.260000,578.450000,84.260000,578.450000,84.730000,578.830000C86.280000,580.130000,87.840000,581.410000,89.390000,582.730000C90.540047,583.599569,91.172212,584.991837,91.070000,586.430000Q90.610000,591.370000,90.120000,596.310000C89.994286,597.334522,90.578700,598.314032,91.540000,598.690000L102.460000,604.250000C103.769634,604.887807,104.705674,606.101330,104.990000,607.530000C105.380000,609.330000,105.730000,611.140000,106.110000,612.940000C106.200000,613.350000,106.110000,613.450000,105.740000,613.230000Q100.420000,610.490000,95.070000,607.780000Z" fill="rgb(255,130,0)" stroke="none" stroke-width="1"/><path id="ed59md55bybn90" d="M98.820000,578.870000L112.150000,585.660000C113.970409,586.524334,115.094015,588.397011,115,590.410000Q113.750000,603.300000,112.510000,616.190000C112.510000,616.600000,112.330000,616.600000,111.980000,616.400000C111.630000,616.200000,111.730000,616.060000,111.700000,615.890000C111.240000,613.110000,110.700000,610.330000,110.140000,607.530000Q109.030000,602.250000,107.460000,596.920000C106.314036,593.032920,104.161391,589.517624,101.220000,586.730000C97.670000,583.250000,94,580.020000,90.220000,576.930000C88.550000,575.550000,86.850000,574.210000,85.220000,572.850000C84.882606,572.639652,84.754110,572.211333,84.920000,571.850000C84.920000,571.780000,85.020000,571.850000,85.090000,571.850000L85.420000,572.020000Q92.120000,575.440000,98.820000,578.870000Z" fill="rgb(255,130,0)" stroke="none" stroke-width="1"/><path id="ed59md55bybn91" d="M162.340000,614.630000C163.050144,614.389210,163.819856,614.389210,164.530000,614.630000C168.052802,615.741602,170.503049,618.939314,170.660000,622.630000C170.652561,623.891220,170.562367,625.150592,170.390000,626.400000C170.310000,627.400000,170.190000,628.400000,170.110000,629.400000C170.110000,629.720000,169.980000,629.740000,169.670000,629.580000C168.780000,629.110000,167.880000,628.640000,166.980000,628.210000C166.630000,628.040000,166.580000,627.890000,166.610000,627.580000C166.800000,625.800000,166.960000,624,167.140000,622.210000C167.140000,622.030000,167.140000,621.850000,167.140000,621.660000C167.174567,620.437367,166.547841,619.290916,165.500000,618.660000C163.610000,617.320000,162.030000,617.770000,161.840000,619.660000C161.670000,621.390000,161.500000,623.130000,161.350000,624.870000C161.350000,625.220000,161.200000,625.230000,160.890000,625.060000C159.980000,624.580000,159.060000,624.120000,158.150000,623.660000C157.880000,623.530000,157.760000,623.420000,157.790000,623.110000C158.050000,620.580000,158.270000,618.030000,158.540000,615.510000C158.730000,613.700000,160.070000,612.940000,161.820000,613.510000C162.370000,613.700000,162.370000,613.700000,162.330000,614.250000C162.350000,614.370000,162.350000,614.450000,162.340000,614.630000Z" fill="rgb(255,130,0)" stroke="none" stroke-width="1"/><path id="ed59md55bybn92" d="M139.430000,607.770000C139.520000,606.870000,139.580000,606.100000,139.670000,605.350000C139.670000,605.060000,139.670000,604.920000,139.330000,604.790000C138.990000,604.660000,138.720000,604.460000,138.420000,604.340000C138.283258,604.312503,138.164715,604.228034,138.094079,604.107763C138.023444,603.987492,138.007411,603.842818,138.050000,603.710000C138.130000,603.120000,138.190000,602.510000,138.230000,601.890000C138.230000,601.580000,138.330000,601.470000,138.670000,601.680000C139.010000,601.890000,139.290000,601.980000,139.590000,602.160000C139.890000,602.340000,139.980000,602.290000,140,601.990000C140.050000,601.220000,140.150000,600.470000,140.210000,599.700000C140.210000,599.410000,140.330000,599.380000,140.610000,599.530000C141.610000,600.040000,142.550000,600.530000,143.520000,601.010000C143.761585,601.078100,143.903980,601.327291,143.840000,601.570000C143.750000,602.290000,143.710000,603.030000,143.610000,603.750000C143.610000,604.080000,143.610000,604.230000,143.990000,604.400000C144.800000,604.780000,145.600000,605.220000,146.400000,605.620000C146.670000,605.750000,146.720000,605.860000,146.660000,606.100000C146.370000,607.350000,145.190000,607.770000,143.800000,607.100000C143.430000,606.920000,143.300000,606.930000,143.270000,607.330000C143.200000,608.400000,143.070000,609.450000,142.970000,610.520000C142.949666,610.816318,142.949666,611.113682,142.970000,611.410000C142.954952,612.333489,143.489115,613.177938,144.330000,613.560000C144.930000,613.910000,144.930000,613.910000,144.870000,614.560000L144.660000,616.750000C144.660000,616.940000,144.660000,617.060000,144.380000,616.980000C143.458147,616.652498,142.586430,616.198128,141.790000,615.630000C140.173078,614.479902,139.217834,612.614191,139.230000,610.630000C139.230000,609.570000,139.370000,608.610000,139.430000,607.770000Z" fill="rgb(255,130,0)" stroke="none" stroke-width="1"/><path id="ed59md55bybn93" d="M157.460000,629.550000C158.691973,630.152249,159.756660,631.048646,160.560000,632.160000C160.947702,632.703321,161.176257,633.343969,161.220000,634.010000C161.220000,634.310000,161.150000,634.380000,160.870000,634.210000C159.971883,633.726167,159.149762,633.112946,158.430000,632.390000C157.957562,631.869703,157.341695,631.500879,156.660000,631.330000C156.468256,631.255651,156.252464,631.277975,156.080000,631.390000C155.780000,631.610000,155.860000,632.020000,156.290000,632.390000C156.817033,632.832727,157.375130,633.237097,157.960000,633.600000C158.736828,634.100165,159.443115,634.702191,160.060000,635.390000C161.560000,637.150000,161.500000,639.510000,159.950000,639.950000C158.240000,640.420000,155.830000,639.410000,154.180000,637.480000C153.343280,636.598664,152.840974,635.452558,152.760000,634.240000C152.760000,634,152.810000,633.980000,153.040000,634.100000C154.150797,634.679114,155.112543,635.507379,155.850000,636.520000C156.326486,637.239852,157.147875,637.654349,158.010000,637.610000C158.580000,637.610000,158.650000,636.970000,158.150000,636.340000C157.650918,635.759220,157.055552,635.268720,156.390000,634.890000C155.609690,634.406426,154.902534,633.813762,154.290000,633.130000C153.090000,631.740000,152.900000,630.130000,153.880000,629.390000C154.860000,628.650000,156.150000,629,157.460000,629.550000Z" fill="rgb(255,130,0)" stroke="none" stroke-width="1"/><path id="ed59md55bybn94" d="M163.080000,637.290000C163.150000,636.580000,163.190000,635.980000,163.260000,635.400000C163.318591,635.182413,163.195033,634.957362,162.980000,634.890000C162.650000,634.730000,162.200000,634.660000,162.030000,634.340000C161.860000,634.020000,162.030000,633.620000,162.030000,633.270000C162.120000,632.270000,162.130000,632.270000,163.130000,632.760000C163.400000,632.890000,163.500000,632.850000,163.520000,632.580000C163.590000,631.680000,163.690000,630.790000,163.770000,629.890000C163.770000,629.600000,163.880000,629.540000,164.180000,629.700000C164.910000,630.090000,165.640000,630.460000,166.380000,630.820000C166.623565,630.892661,166.768264,631.142596,166.710000,631.390000C166.610000,632.260000,166.540000,633.160000,166.440000,634.030000C166.440000,634.340000,166.500000,634.480000,166.800000,634.630000C167.400000,634.910000,167.990000,635.230000,168.590000,635.530000C168.792628,635.588372,168.915142,635.794020,168.870000,636C168.810000,636.500000,168.760000,637,168.730000,637.530000C168.730000,637.770000,168.610000,637.790000,168.380000,637.670000C167.770000,637.340000,167.160000,637.050000,166.560000,636.730000C166.290000,636.590000,166.190000,636.610000,166.160000,636.890000C166.090000,637.890000,165.980000,638.790000,165.900000,639.750000C165.855727,640.024896,165.855727,640.305104,165.900000,640.580000C166.022980,641.192692,166.448525,641.701086,167.030000,641.930000C167.340000,642.080000,167.430000,642.210000,167.390000,642.520000C167.310000,643.130000,167.260000,643.760000,167.200000,644.380000C167.200000,644.510000,167.200000,644.670000,166.990000,644.590000C165.768761,644.217138,164.683887,643.493889,163.870000,642.510000C163.192614,641.659598,162.838333,640.596753,162.870000,639.510000C162.900000,638.730000,163,638,163.080000,637.290000Z" fill="rgb(255,130,0)" stroke="none" stroke-width="1"/><path id="ed59md55bybn95" d="M129.100000,625C128.952315,625.006106,128.807185,624.960089,128.690000,624.870000C126.100000,623.550000,123.510000,622.220000,120.920000,620.870000C120.570000,620.690000,120.460000,620.550000,120.500000,620.180000Q121.040000,614.820000,121.500000,609.460000C121.500000,609.080000,121.640000,609.050000,122,609.300000C123.303076,610.165820,124.087329,611.625505,124.090000,613.190000Q123.840000,616.030000,123.540000,618.850000C123.470178,619.125864,123.635063,619.406613,123.910000,619.480000C124.910000,619.990000,125.990000,620.530000,127.020000,621.060000C127.180000,621.140000,127.360000,621.170000,127.410000,621.440000C127.546354,622.063292,127.757903,622.667718,128.040000,623.240000C128.336920,623.858846,128.691841,624.448149,129.100000,625Z" fill="rgb(255,130,0)" stroke="none" stroke-width="1"/><path id="ed59md55bybn96" d="M172.390000,642.390000C172.396822,641.466837,172.809550,640.593452,173.518447,640.002063C174.227343,639.410674,175.160571,639.161210,176.070000,639.320000C177.990000,639.570000,180.130000,641.250000,181.350000,643.460000C181.520000,643.760000,181.430000,643.790000,181.240000,643.820000C180.118694,643.881620,179.018575,643.496938,178.180000,642.750000C176.950000,641.820000,175.780000,641.750000,175.180000,642.520000C174.607945,643.354729,174.607945,644.455271,175.180000,645.290000C175.663733,646.381016,176.622646,647.188716,177.780000,647.480000C179.002624,647.737536,180.063621,648.490735,180.710000,649.560000C180.840000,649.770000,180.870000,649.850000,180.710000,649.920000C179.170000,650.570000,177.470000,650.400000,175.580000,648.820000C173.801940,647.426128,172.659482,645.375470,172.410000,643.130000C172.400010,643.040277,172.400010,642.949723,172.410000,642.860000C172.370000,642.660000,172.390000,642.470000,172.390000,642.390000Z" fill="rgb(255,130,0)" stroke="none" stroke-width="1"/><path id="ed59md55bybn97" d="M152.310000,632.050000C152.170000,633.470000,152.020000,634.890000,151.900000,636.310000C151.900000,636.590000,151.790000,636.640000,151.520000,636.490000C150.820000,636.110000,150.110000,635.760000,149.400000,635.410000C149.171599,635.342468,149.029820,635.114762,149.070000,634.880000C149.360000,632.060000,149.630000,629.230000,149.900000,626.410000C149.900000,626.170000,149.960000,626.070000,150.240000,626.220000C150.970000,626.610000,151.710000,626.990000,152.440000,627.340000C152.653651,627.402945,152.777972,627.624946,152.720000,627.840000C152.570000,629.240000,152.440000,630.650000,152.310000,632.050000Z" fill="rgb(255,130,0)" stroke="none" stroke-width="1"/><path id="ed59md55bybn98" d="M171.920000,642.090000C171.790000,643.480000,171.640000,644.870000,171.520000,646.270000C171.520000,646.580000,171.400000,646.630000,171.090000,646.460000C170.420000,646.090000,169.740000,645.750000,169.090000,645.460000C168.820000,645.330000,168.700000,645.210000,168.730000,644.900000C169.020000,642.090000,169.290000,639.260000,169.550000,636.440000C169.550000,636.160000,169.680000,636.140000,169.940000,636.280000C170.640000,636.660000,171.350000,637.020000,172.060000,637.360000C172.330000,637.490000,172.400000,637.620000,172.370000,637.880000C172.190000,639.250000,172.060000,640.680000,171.920000,642.090000Z" fill="rgb(255,130,0)" stroke="none" stroke-width="1"/><path id="ed59md55bybn99" d="M179.510000,620C179.640000,619.930000,179.780000,620.070000,179.900000,620.130000L183.900000,622.130000C184.470000,622.420000,184.600000,622.630000,184.550000,623.190000C184.410000,624.590000,184.280000,625.990000,184.140000,627.390000C183.950000,627.320000,183.990000,627.200000,183.980000,627.110000C183.800000,626.210000,183.620000,625.310000,183.380000,624.400000C183.152417,623.546241,182.679595,622.777906,182.020000,622.190000C181.320000,621.540000,180.590000,620.920000,179.860000,620.320000C179.730000,620.290000,179.570000,620.230000,179.510000,620Z" fill="rgb(255,130,0)" stroke="none" stroke-width="1"/><path id="ed59md55bybn100" d="M153,625.330000C152.920000,626.100000,152.250000,626.400000,151.470000,626.020000C150.670990,625.610535,150.168862,624.787818,150.170000,623.890000C150.250000,623.100000,150.950000,622.780000,151.730000,623.180000C152.518942,623.606053,153.007654,624.433400,153,625.330000Z" fill="rgb(255,130,0)" stroke="none" stroke-width="1"/><path id="ed59md55bybn101" d="M172.570000,635.330000C172.490000,636.120000,171.830000,636.410000,171.050000,636.010000C170.254217,635.592012,169.754177,634.768870,169.750000,633.870000C169.840000,633.100000,170.560000,632.790000,171.330000,633.190000C172.120808,633.605172,172.603060,634.437447,172.570000,635.330000Z" fill="rgb(255,130,0)" stroke="none" stroke-width="1"/><path id="ed59md55bybn102" d="M138.540000,613.130000Q136.170000,605.420000,133.780000,597.700000C133.698005,597.400834,133.597819,597.106954,133.480000,596.820000C132.670000,595.040000,130.690000,594.210000,129.820000,595.300000C127.430000,598.300000,125.070000,601.230000,122.700000,604.200000C122.450000,604.510000,122.200000,604.840000,121.930000,605.200000L123.930000,606.200000C124.523335,606.529251,125.212556,606.642354,125.880000,606.520000C126.414879,606.384158,126.861819,606.017814,127.100000,605.520000C127.340000,605.100000,127.640000,605.080000,128.200000,605.380000C129.650000,606.170000,131.110000,606.950000,132.560000,607.590000C133.429287,607.909397,134.057072,608.674989,134.200000,609.590000C134.501424,610.779954,135.249995,611.807897,136.290000,612.460000C137.060000,612.980000,137.860000,613.280000,138.720000,613.760000C138.650000,613.490000,138.600000,613.310000,138.540000,613.130000ZM132.450000,604.790000L129,603L131.240000,600C131.720000,601.590000,132.170000,603.060000,132.620000,604.520000C132.720000,604.820000,132.730000,604.940000,132.450000,604.790000Z" fill="rgb(255,130,0)" stroke="none" stroke-width="1"/><path id="ed59md55bybn103" d="M148.710000,625.670000C148.710000,625.440000,148.610000,625.340000,148.420000,625.240000C147.760000,624.910000,147.090000,624.580000,146.420000,624.240000C146.100000,624.060000,145.830000,623.940000,145.890000,624.500000C145.130235,623.441931,144.061180,622.645380,142.830000,622.220000C141.865235,621.817306,140.774933,621.842747,139.830000,622.290000C138.100000,623.210000,137.620000,625.440000,138.580000,627.910000C139.046988,629.144606,139.785130,630.258653,140.740000,631.170000C141.834428,632.318690,143.309633,633.029632,144.890000,633.170000C144.911363,633.343086,144.876291,633.518445,144.790000,633.670000C144.110000,635.110000,142.150000,634.930000,140.620000,633.290000C140.460000,633.120000,140.350000,632.960000,140.160000,633.070000C139.600000,633.400000,139.020000,633.710000,138.440000,634.010000C138.290000,634.080000,138.310000,634.190000,138.440000,634.350000C138.730000,634.680000,139.020000,635.040000,139.330000,635.350000C142.580000,638.610000,146.970000,638.950000,147.690000,634.750000C148.270000,631.840000,148.390000,628.700000,148.710000,625.670000ZM142.770000,629.820000C141.385074,629.086408,140.519252,627.647219,140.520000,626.080000C140.650000,624.750000,141.870000,624.200000,143.210000,624.880000C144.604249,625.626651,145.476077,627.078418,145.480000,628.660000C145.350000,629.930000,144.080000,630.470000,142.770000,629.820000Z" fill="rgb(255,130,0)" stroke="none" stroke-width="1"/><path id="ed59md55bybn104" d="M157.690000,615.920000C157.299238,612.494582,155.139030,609.525720,152,608.100000C148.550000,606.690000,145.560000,608.750000,145.860000,612.430000C146.102017,615.146326,147.437515,617.647676,149.560000,619.360000C151.850000,621.360000,154.020000,621.800000,155.960000,620.970000C156.850000,620.580000,156.850000,620.550000,155.790000,619.610000C154.881095,618.791405,153.769033,618.231920,152.570000,617.990000C150.787132,617.471988,149.419998,616.036116,148.990000,614.230000L149.450000,614.460000L157.130000,618.380000C157.400000,618.520000,157.510000,618.510000,157.570000,618.240000C157.737103,617.478500,157.777646,616.694677,157.690000,615.920000ZM154.800000,614.780000C154.690000,614.910000,154.330000,614.600000,154.090000,614.480000L152,613.430000C151.170000,613.010000,150.350000,612.570000,149.520000,612.170000C149.150000,611.990000,149.150000,611.850000,149.270000,611.610000C149.465986,611.226378,149.841794,610.967071,150.270000,610.920000C151.540000,610.670000,153.130000,611.520000,154.160000,612.970000C154.347896,613.233219,154.502409,613.518733,154.620000,613.820000C154.780000,614.160000,155,614.580000,154.800000,614.780000Z" fill="rgb(255,130,0)" stroke="none" stroke-width="1"/><path id="ed59md55bybn105" d="M182.880000,628.700000C182.597312,626.168981,181.333546,623.849684,179.360000,622.240000C177.130000,620.420000,175.040000,620.020000,173.250000,620.890000C171.460000,621.760000,170.700000,623.590000,171.250000,626.270000C171.940464,629.471613,174.064366,632.178112,177.010000,633.610000C178.518042,634.396684,180.322575,634.362778,181.800000,633.520000C182.010000,633.410000,181.800000,633.270000,181.720000,633.140000C181.084355,632.398476,180.305437,631.793028,179.430000,631.360000C178.783459,631.090765,178.114124,630.879924,177.430000,630.730000C175.833241,630.095236,174.641388,628.728329,174.230000,627.060000L174.600000,627.250000C177.180000,628.570000,179.750000,629.870000,182.330000,631.250000C182.660000,631.420000,182.760000,631.360000,182.820000,631.080000C182.972118,630.295513,182.992396,629.491155,182.880000,628.700000ZM180,627.580000C179.870000,627.750000,179.570000,627.450000,179.350000,627.340000C178.630000,626.990000,177.910000,626.620000,177.190000,626.250000C176.470000,625.880000,175.500000,625.380000,174.660000,624.970000C174.370000,624.830000,174.350000,624.720000,174.440000,624.500000C174.624520,624.098283,175.001891,623.819029,175.440000,623.760000C176.967899,623.635104,178.441582,624.356594,179.280000,625.640000C179.536197,625.980074,179.744789,626.353519,179.900000,626.750000C180,627.050000,180.140000,627.410000,180,627.580000Z" fill="rgb(255,130,0)" stroke="none" stroke-width="1"/><path id="ed59md55bybn106" d="M133.380000,617.310000C130.710000,615.950000,128.250000,617.020000,127.990000,619.660000C127.730000,622.300000,129.670000,625.710000,132.420000,627.140000C135.170000,628.570000,137.580000,627.450000,137.840000,624.790000C138.100000,622.130000,136.120000,618.700000,133.380000,617.310000ZM132.690000,624.690000C131.315241,623.977313,130.451622,622.558509,130.450000,621.010000C130.570000,619.640000,131.790000,619.080000,133.150000,619.780000C134.521204,620.497342,135.374792,621.922564,135.360000,623.470000C135.230000,624.840000,134.050000,625.380000,132.690000,624.690000Z" fill="rgb(255,130,0)" stroke="none" stroke-width="1"/><line id="ed59md55bybn107" x1="62.360000" y1="522.540000" x2="213.800000" y2="595.090000" opacity="0.08" fill="none" stroke="rgb(99,109,111)" stroke-width="1" stroke-miterlimit="10"/><line id="ed59md55bybn108" x1="72.980000" y1="515.900000" x2="224.430000" y2="588.450000" opacity="0.08" fill="none" stroke="rgb(99,109,111)" stroke-width="1" stroke-miterlimit="10"/><line id="ed59md55bybn109" x1="83.610000" y1="509.260000" x2="235.060000" y2="581.810000" opacity="0.08" fill="none" stroke="rgb(99,109,111)" stroke-width="1" stroke-miterlimit="10"/><line id="ed59md55bybn110" x1="94.230000" y1="502.620000" x2="245.680000" y2="575.170000" opacity="0.08" fill="none" stroke="rgb(99,109,111)" stroke-width="1" stroke-miterlimit="10"/><line id="ed59md55bybn111" x1="104.860000" y1="495.980000" x2="256.310000" y2="568.530000" opacity="0.08" fill="none" stroke="rgb(99,109,111)" stroke-width="1" stroke-miterlimit="10"/><line id="ed59md55bybn112" x1="115.490000" y1="489.340000" x2="266.930000" y2="561.890000" opacity="0.08" fill="none" stroke="rgb(99,109,111)" stroke-width="1" stroke-miterlimit="10"/><line id="ed59md55bybn113" x1="126.110000" y1="482.700000" x2="277.560000" y2="555.250000" opacity="0.08" fill="none" stroke="rgb(99,109,111)" stroke-width="1" stroke-miterlimit="10"/><line id="ed59md55bybn114" x1="45.230000" y1="604.950000" x2="288.700000" y2="720.410000" opacity="0.08" fill="none" stroke="rgb(99,109,111)" stroke-width="1" stroke-miterlimit="10"/><line id="ed59md55bybn115" x1="125.910000" y1="565.210000" x2="132.300000" y2="667.570000" opacity="0.08" fill="none" stroke="rgb(99,109,111)" stroke-width="1" stroke-miterlimit="10"/><rect id="ed59md55bybn116" width="11.070000" height="21" rx="5.540000" ry="5.540000" transform="matrix(0.99825000000000 -0.05913200000000 0.05913200000000 0.99825000000000 260.66906197999998 670.98696236000001)" fill="rgb(99,109,111)" stroke="none" stroke-width="1"/><path id="ed59md55bybn117" d="M124.320000,470.880000C126.740000,470.880000,129.320000,472.050000,132.320000,473.810000L132.430000,473.870000L295,554.780000C298.777080,556.818832,301.187262,560.710152,301.330000,565L301.680000,581C301.687816,581.706641,302.067969,582.356701,302.680000,582.710000L310.310000,586.870000C312.312116,587.909824,314.055034,589.386179,315.410000,591.190000L354,642.770000L354.070000,642.850000C355.870000,645.020000,359.540000,649.340000,363.770000,653.970000C363.904187,654.115409,364.059209,654.240100,364.230000,654.340000L366.070000,656.340000C368.980000,659.530000,374.740000,666.530000,375.680000,670.220000C375.720334,670.400754,375.791363,670.573253,375.890000,670.730000C376.100000,671.110000,376.300000,671.450000,376.490000,671.730000L376.620000,671.950000C377.265114,672.988582,377.842966,674.067462,378.350000,675.180000C378.346256,675.216571,378.346256,675.253429,378.350000,675.290000L378.350000,675.390000C379.319152,678.183509,380.019003,681.063277,380.440000,683.990000C381.723514,690.311118,380.739244,696.882355,377.660000,702.550000C375.660000,706.410000,369.560000,710.650000,366.660000,712.350000L366.570000,712.410000L345.710000,726.100000L323.280000,739.400000C322.280000,739.710000,315.280000,741.820000,310.770000,742.080000L309.770000,742.080000L309.500000,742.080000C306.433647,742.008702,303.379086,741.674139,300.370000,741.080000C300.243761,741.065276,300.116239,741.065276,299.990000,741.080000C299.317414,741.080111,298.689922,741.418280,298.320000,741.980000C297.367763,743.485708,295.969455,744.656791,294.320000,745.330000L294.140000,745.420000L292.070000,746.490000L291.830000,746.640000C291.195920,747.095783,290.498524,747.456273,289.760000,747.710000L289.500000,747.820000L289.280000,747.940000L289.280000,747.940000C289.130640,747.920408,288.979360,747.920408,288.830000,747.940000C288.189441,748.082359,287.536102,748.159419,286.880000,748.170000L286.770000,748.170000C285.907032,748.164677,285.047725,748.057264,284.210000,747.850000C276.870000,746.070000,270.480000,737.610000,269.970000,728.980000Q269.970000,728.290000,269.970000,727.600000C269.983405,726.816263,269.537739,726.096942,268.830000,725.760000L229.500000,707C229.233408,706.865642,228.938521,706.797064,228.640000,706.800000C228.202689,706.800705,227.777662,706.944722,227.430000,707.210000L223.430000,710.270000L223.350000,710.330000L107.130000,655C106.861813,654.870098,106.567987,654.801766,106.270000,654.800000C105.633416,654.801531,105.035584,655.106017,104.660000,655.620000C103.717954,656.937765,102.420946,657.960806,100.920000,658.570000L100.730000,658.650000L98.670000,659.720000L98.430000,659.870000C97.796297,660.320506,97.102980,660.680627,96.370000,660.940000C96.282491,660.966330,96.198534,661.003272,96.120000,661.050000L95.900000,661.160000L95.900000,661.160000C95.750361,661.145291,95.599639,661.145291,95.450000,661.160000C94.793200,661.306332,94.122871,661.383420,93.450000,661.390000L93.340000,661.390000C92.480287,661.385304,91.624216,661.277875,90.790000,661.070000C83.480000,659.300000,77.110000,650.870000,76.600000,642.280000C76.340000,637.780000,77.760000,633.970000,80.510000,631.830000C80.621869,631.746418,80.722675,631.648972,80.810000,631.540000L81.080000,631.380000L83.360000,630.100000C84.163456,629.655742,84.561253,628.721515,84.324693,627.834415C84.088133,626.947315,83.277981,626.335208,82.360000,626.350000C82.201402,626.349661,82.043426,626.369828,81.890000,626.410000C79.307020,627.074184,77.013138,628.567140,75.360000,630.660000C75.252060,630.780303,75.161206,630.914902,75.090000,631.060000L73,635.480000L40.230000,618.930000C39.890000,616.260000,38.410000,604.260000,38.130000,601.280000C37.290000,588.280000,36.490000,573.470000,36.710000,571.560000C36.714953,571.480077,36.714953,571.399923,36.710000,571.320000C36.710000,568.060000,36.710000,565.070000,36.890000,562.420000C37.140000,557.660000,37.320000,553.180000,37.500000,548.860000C37.830000,540.860000,38.110000,534.050000,38.640000,528.780000C38.712657,527.982044,38.999415,527.218508,39.470000,526.570000C39.625702,526.357386,39.737851,526.116097,39.800000,525.860000L115.580000,474.720000C118.940000,472.370000,121.580000,470.910000,124.220000,470.880000L124.300000,470.880000M124.300000,468.880000L124.200000,468.880000C121.030000,468.880000,118.110000,470.520000,114.430000,473.080000L37.500000,525L37.880000,525.370000C37.195005,526.304016,36.776763,527.406654,36.670000,528.560000C36.130000,533.880000,35.850000,540.770000,35.520000,548.760000C35.340000,553.090000,35.160000,557.570000,34.910000,562.300000C34.770000,564.990000,34.710000,568.020000,34.730000,571.300000C34.390000,574.180000,35.950000,598.580000,36.130000,601.410000C36.440000,604.660000,38.230000,619.060000,38.310000,619.670000L38.370000,620.200000L73.880000,638.140000L76.940000,631.940000C78.321084,630.179257,80.237542,628.915659,82.400000,628.340000L80.080000,629.650000L79.260000,630.160000L79.260000,630.240000C76.020000,632.770000,74.260000,637.240000,74.590000,642.390000C75.150000,651.790000,82.190000,661.040000,90.300000,663.010000C91.282533,663.247802,92.289131,663.371949,93.300000,663.380000L93.430000,663.380000C94.231133,663.373143,95.029150,663.279259,95.810000,663.100000L95.920000,663.310000L96.980000,662.760000C97.890789,662.441709,98.752497,661.997391,99.540000,661.440000L101.600000,660.370000C103.451807,659.625100,105.051544,658.365437,106.210000,656.740000L224.680000,713.200000L224.570000,711.850000L228.570000,708.790000L268,727.650000C268,728.160000,268,728.650000,268,729.190000C268.560000,738.630000,275.630000,747.910000,283.770000,749.880000C284.751420,750.125039,285.758479,750.252600,286.770000,750.260000L286.900000,750.260000C287.700812,750.248162,288.498306,750.154339,289.280000,749.980000L289.390000,750.190000L290.460000,749.640000C291.372450,749.313961,292.236874,748.866613,293.030000,748.310000L295.090000,747.230000C297.129423,746.411725,298.860725,744.974220,300.040000,743.120000C303.175371,743.726015,306.357152,744.060587,309.550000,744.120000L309.840000,744.120000L310.930000,744.120000C315.990000,743.820000,323.700000,741.410000,324.030000,741.310000L324.140000,741.310000L346.810000,727.870000L367.700000,714.150000C368.070000,713.940000,376.700000,708.900000,379.500000,703.540000C382.810428,697.484444,383.873056,690.453388,382.500000,683.690000C381.580000,678.690000,381.040000,676.520000,380.310000,674.690000L380.310000,674.530000L380.250000,674.450000C379.705994,673.252808,379.088137,672.090570,378.400000,670.970000L377.680000,669.740000C376.390000,664.630000,367.970000,655.390000,367.600000,655L365.280000,652.460000L365.280000,652.620000C360.900000,647.840000,357.170000,643.410000,355.630000,641.620000L317.050000,590C315.516132,587.950393,313.540658,586.272266,311.270000,585.090000L303.680000,581L303.330000,564.950000C303.174257,559.949980,300.386402,555.404979,296,553L133.330000,472.080000C130,470.160000,127.180000,468.880000,124.330000,468.880000Z" fill="rgb(255,130,0)" stroke="none" stroke-width="1"/><path id="ed59md55bybn118" d="M124.330000,471.880000L124.330000,471.880000C126.230000,471.880000,128.330000,472.660000,131.830000,474.680000L131.940000,474.740000L294.470000,555.620000L295.420000,553.860000L294.550000,555.660000C297.997272,557.532361,300.196138,561.089349,300.330000,565.010000L300.700000,581.620000C300.707816,582.326641,301.087969,582.976701,301.700000,583.330000L309.830000,587.770000C311.703664,588.727209,313.337482,590.094421,314.610000,591.770000L353.160000,643.330000L353.220000,643.410000C355.070000,645.630000,359.950000,651.410000,365.330000,657.120000C365.435486,657.236233,365.556651,657.337203,365.690000,657.420000C368.270000,660.300000,373.920000,667.130000,374.690000,670.480000L374.690000,670.570000L374.690000,670.630000L374.690000,670.860000C374.781083,671.350429,375.052145,671.789121,375.450000,672.090000L375.660000,672.460000C376.309083,673.491120,376.883871,674.567178,377.380000,675.680000L377.380000,675.680000C378.040000,677.270000,378.550000,679.400000,379.380000,684.140000C380.630164,690.238056,379.684455,696.581745,376.710000,702.050000C374.710000,705.860000,368.350000,710.130000,366.060000,711.460000L365.960000,711.520000L345.070000,725.240000L322.770000,738.450000C321.500000,738.840000,314.850000,740.810000,310.610000,741.060000C310.240000,741.060000,309.830000,741.060000,309.410000,741.060000C306.183157,740.971552,302.970541,740.596747,299.810000,739.940000C299.680420,739.925214,299.549580,739.925214,299.420000,739.940000C298.702630,739.937152,298.038682,740.318732,297.680000,740.940000C296.832095,742.486847,295.480635,743.697163,293.850000,744.370000L293.660000,744.460000L291.440000,745.610000C291.347760,745.653696,291.260575,745.707349,291.180000,745.770000C290.593520,746.191483,289.950519,746.528133,289.270000,746.770000L289.170000,746.770000L289.070000,746.770000C288.279852,747.015122,287.457296,747.139854,286.630000,747.140000C285.847988,747.134382,285.069334,747.037050,284.310000,746.850000C277.360000,745.170000,271.310000,737.110000,270.830000,728.850000C270.560000,724.390000,272.080000,720.640000,274.890000,718.850000L275.120000,718.680000L279.330000,716.320000C280.098811,715.891257,280.496904,715.010248,280.310575,714.149916C280.124246,713.289583,279.397310,712.652230,278.520000,712.580000L277.680000,712.580000C270.760000,712.580000,267.500000,719.580000,266.230000,723.450000L229.920000,706.060000C229.748413,705.880680,229.544948,705.734863,229.320000,705.630000C229.056344,705.509864,228.769733,705.448447,228.480000,705.450000C228.042689,705.450705,227.617662,705.594722,227.270000,705.860000L223.390000,708.860000C223.179174,708.858144,222.969552,708.891954,222.770000,708.960000L106.780000,653.690000C105.857742,653.253108,104.754465,653.580644,104.220000,654.450000C103.370045,655.872044,102.082504,656.980663,100.550000,657.610000L100.370000,657.690000L98.150000,658.840000C98.060916,658.883765,97.977053,658.937437,97.900000,659C97.319184,659.424787,96.678984,659.761734,96,660L95.900000,660L95.800000,660C95.012773,660.241784,94.193514,660.363156,93.370000,660.360000C92.591256,660.354804,91.815863,660.257460,91.060000,660.070000C84.140000,658.400000,78.120000,650.380000,77.630000,642.190000C77.370000,637.750000,78.880000,634.020000,81.630000,632.190000C81.713185,632.138830,81.790338,632.078449,81.860000,632.010000L86.140000,629.620000C86.340460,629.591325,86.535778,629.534076,86.720000,629.450000C86.960869,629.336255,87.207923,629.236098,87.460000,629.150000C88.311885,628.854440,88.860649,628.025386,88.799893,627.125734C88.739137,626.226083,88.083888,625.478339,87.200000,625.300000C86.330824,625.125834,85.446453,625.038736,84.560000,625.040000C80.462775,625.101916,76.634563,627.091994,74.230000,630.410000C74.022209,630.674837,73.884627,630.987838,73.830000,631.320000L72.490000,634.050000L41.150000,618.270000C40.720000,614.820000,39.380000,603.940000,39.150000,601.190000C38.480000,590.770000,37.510000,573.630000,37.730000,571.740000C37.739880,571.620203,37.739880,571.499797,37.730000,571.380000C37.730000,568.120000,37.730000,565.130000,37.910000,562.470000C38.150000,557.720000,38.340000,553.230000,38.520000,548.890000C38.850000,540.960000,39.130000,534.110000,39.650000,528.890000C39.724256,528.084977,40.078062,527.331370,40.650000,526.760000C40.789911,526.618315,40.907878,526.456531,41,526.280000L116.160000,475.560000C119.990000,472.880000,122.160000,471.890000,124.330000,471.890000M124.330000,469.890000C121.560000,469.890000,118.890000,471.210000,115.010000,473.890000L39.060000,525.170000L39.230000,525.340000C38.334855,526.237354,37.779794,527.418184,37.660000,528.680000C36.850000,536.820000,36.660000,548.850000,35.910000,562.370000C35.760000,565.210000,35.710000,568.250000,35.730000,571.370000L35.730000,571.370000C35.350000,573.690000,37.130000,601.370000,37.130000,601.370000C37.430000,604.640000,39.300000,619.600000,39.300000,619.600000L73.430000,636.850000L75.890000,631.850000L75.890000,631.750000C77.904719,628.900828,81.160783,627.187306,84.650000,627.140000C85.408712,627.139312,86.165665,627.212997,86.910000,627.360000C86.568404,627.463751,86.234293,627.590713,85.910000,627.740000L85.850000,627.610000L80.570000,630.610000L80.570000,630.610000C77.270000,632.740000,75.290000,636.970000,75.570000,642.380000C76.100000,651.380000,82.790000,660.220000,90.570000,662.090000C91.480103,662.312091,92.413198,662.426210,93.350000,662.430000C94.367580,662.430197,95.379229,662.275077,96.350000,661.970000L96.350000,661.970000L96.580000,661.850000C97.449199,661.555633,98.268568,661.130775,99.010000,660.590000L101.230000,659.450000C103.167136,658.655448,104.792544,657.251207,105.860000,655.450000L223.550000,711.540000L223.500000,710.890000L223.780000,711.170000L228.570000,707.520000L228.570000,707.660000L267.570000,726.360000C267.570000,726.360000,270,714.700000,277.830000,714.700000C278.050000,714.700000,278.270000,714.700000,278.500000,714.700000L273.940000,717.260000L273.940000,717.260000C270.630000,719.390000,268.640000,723.640000,268.940000,729.070000C269.470000,738.070000,276.190000,746.980000,283.940000,748.850000C284.855613,749.080175,285.795901,749.197711,286.740000,749.200000C287.757497,749.199111,288.768983,749.044016,289.740000,748.740000L289.740000,748.740000L289.980000,748.620000C290.850979,748.318072,291.673038,747.890197,292.420000,747.350000L294.640000,746.200000C296.693591,745.360958,298.400500,743.848016,299.480000,741.910000C302.772539,742.591207,306.118952,742.979391,309.480000,743.070000C309.930000,743.070000,310.370000,743.070000,310.800000,743.070000C315.800000,742.780000,323.660000,740.310000,323.660000,740.310000L346.270000,727L367.210000,713.260000C367.210000,713.260000,375.930000,708.260000,378.630000,703.050000C381.813012,697.182433,382.829054,690.381675,381.500000,683.840000C380.600000,678.980000,380.060000,676.750000,379.330000,674.990000L379.330000,674.990000L379.330000,674.990000C378.558033,673.325158,377.679545,671.711813,376.700000,670.160000L376.700000,670.340000C376.700000,670.410000,376.700000,670.490000,376.700000,670.580000C376.700000,670.500000,376.700000,670.420000,376.700000,670.340000L376.700000,670.160000C375.590000,665.280000,366.830000,655.710000,366.830000,655.710000L366.830000,655.830000C361.550000,650.220000,356.760000,644.560000,354.830000,642.210000L316.280000,590.650000C314.831933,588.717728,312.965300,587.138270,310.820000,586.030000L302.730000,581.610000L302.360000,565.010000C302.202366,560.358203,299.591936,556.138135,295.500000,553.920000L295.420000,553.920000L132.830000,473C129.310000,471,126.780000,469.930000,124.330000,469.930000Z" transform="matrix(1 0 0 1 0.01488528419932 -0.23594895713927)" fill="rgb(255,130,0)" stroke="none" stroke-width="1"/></g></g></svg>