<svg id="Layer_1" data-name="Layer 1" xmlns="http://www.w3.org/2000/svg" viewBox="0 0 150 26"><defs><style>.cls-1{fill:#fff;}</style></defs><title>logo</title><polygon class="cls-1" points="19.11 0.38 0 0.38 0 4.82 7.04 4.82 7.04 25.62 12.09 25.62 12.09 4.82 19.11 4.82 19.11 0.38"/><path class="cls-1" d="M4106.22,645.38h-6.87l-8,25.24h5.29l1.59-5.17h9.13l1.62,5.17h5.29l-8-25.15Zm-.19,15.7h-6.57l3.32-11.16Z" transform="translate(-4073 -645)"/><path class="cls-1" d="M4122.38,650.41a4.88,4.88,0,0,1,3.31-.85,37.38,37.38,0,0,1,6.14.63l.15,0,.57-4.36-.13,0a28.66,28.66,0,0,0-6.87-.83c-3.09,0-5.42.65-6.94,1.94a6.79,6.79,0,0,0-2.17,5.44v11.24a6.79,6.79,0,0,0,2.17,5.44c1.52,1.29,3.85,1.94,6.94,1.94a29.11,29.11,0,0,0,6.87-.83l.13,0-.57-4.36-.15,0a37.38,37.38,0,0,1-6.14.63,4.82,4.82,0,0,1-3.31-.86,3.54,3.54,0,0,1-.89-2.78v-9.6A3.57,3.57,0,0,1,4122.38,650.41Z" transform="translate(-4073 -645)"/><polygon class="cls-1" points="77.88 10.64 68.83 10.64 68.83 0.38 63.78 0.38 63.78 25.62 68.83 25.62 68.83 15.09 77.88 15.09 77.88 25.62 82.93 25.62 82.93 0.38 77.88 0.38 77.88 10.64"/><path class="cls-1" d="M4196.78,662.87a3.5,3.5,0,0,1-1,2.72,6.63,6.63,0,0,1-6.87,0,3.5,3.5,0,0,1-1-2.72V645.38h-5v17.87a7.33,7.33,0,0,0,2,5.38c1.61,1.57,4.1,2.37,7.41,2.37s5.79-.8,7.39-2.37a7.31,7.31,0,0,0,2.05-5.38V645.38h-5.05Z" transform="translate(-4073 -645)"/><path class="cls-1" d="M4177.54,645.13a3,3,0,0,0-2.14.88h0l-5.9,6.71-5.86-6.66h0a3,3,0,0,0-2.13-.87,3.05,3.05,0,0,0-2.14.87,3,3,0,0,0,0,4.23l6.31,6.78a2.9,2.9,0,0,0-.76,1.95,2.86,2.86,0,0,0,.86,2.06l.74.74-.56.57a2.5,2.5,0,0,0,0,3.56l.49.48-.41.41a2.36,2.36,0,0,0,1.68,4,2.38,2.38,0,0,0,1.69-.69l2.07-2.1a2.37,2.37,0,0,0,.7-1.67,2.41,2.41,0,0,0-.7-1.67l-.36-.35.79-.79a2.47,2.47,0,0,0,.75-1.78,2.5,2.5,0,0,0-.74-1.77l-.79-.78,8.56-9a3,3,0,0,0,0-4.22A3,3,0,0,0,4177.54,645.13Z" transform="translate(-4073 -645)"/><path class="cls-1" d="M4222,658.5c-1-1.21-3-1.88-6.17-2.62-4.31-1-4.31-1.1-4.31-3.84,0-1.16.17-1.76.63-2.13s1.4-.58,3-.58a32.92,32.92,0,0,1,6.71.75l.15,0,.57-4.25-.13,0A34.91,34.91,0,0,0,4215,645c-3.17,0-5.36.57-6.73,1.72s-1.88,2.76-1.88,5.21c0,2.63.19,4.29,1.21,5.46s2.5,1.74,5.82,2.47c2.33.5,3.4.79,3.94,1.28s.56,1.17.56,2.56c0,1.1-.11,1.88-.66,2.34s-1.48.63-3.2.63a23.53,23.53,0,0,1-7.07-1.16l-.15,0-.89,4,.1,0A21.58,21.58,0,0,0,4214,671c3.65,0,6-.59,7.31-1.85,1.18-1.1,1.68-2.73,1.68-5.45C4223,661.23,4222.93,659.65,4222,658.5Z" transform="translate(-4073 -645)"/></svg>